<?xml version="1.0" encoding="utf-8"?>
<!-- Generator: Adobe Illustrator 27.0.1, SVG Export Plug-In . SVG Version: 6.00 Build 0)  -->
<svg version="1.1" id="Layer_1" xmlns="http://www.w3.org/2000/svg" xmlns:xlink="http://www.w3.org/1999/xlink" x="0px" y="0px"
	 viewBox="0 0 500 484.518" style="enable-background:new 0 0 500 484.518;" xml:space="preserve">
<style type="text/css">
	.st0{fill:#0CAB4A;}
	.st1{fill:#FFFFFF;}
	.st2{fill:#00323D;}
	.st3{fill:#E8E8E4;}
	.st4{fill:#FB4811;}
	.st5{fill:#FBCA00;}
	.st6{fill:#006029;}
</style>
<g>
	<g>
		<path class="st6" d="M182.563,426.32l-21.795,49.627c-2.304,5.207-7.419,8.571-13.132,8.571H14.33
			c-7.879,0-14.33-6.451-14.33-14.33v-220.21c0-3.825,1.474-7.419,4.193-10.137l110.036-110.036
			c3.502-3.502,7.419-4.239,10.045-4.239c4.792,0,10.828,2.396,13.501,9.17l48.244,123.767
			C207.308,313.059,206.11,372.685,182.563,426.32z"/>
	</g>
	<g>
		<path class="st6" d="M470.187,223.712c-0.461,2.304-2.258,7.879-8.801,10.414c-25.62,9.999-52.392,15.068-79.624,15.068
			c-43.683,0-86.029-12.902-122.431-37.37c-37.231-24.975-65.57-60.363-81.928-102.295l-8.663-22.118
			c-2.027-5.299-0.783-11.335,3.225-15.344L239.84,4.239C242.512,1.52,246.152,0,249.977,0c3.824,0,7.418,1.52,10.137,4.239
			l206.202,206.387C471.247,215.602,470.694,221.454,470.187,223.712z"/>
	</g>
	<g>
		<path class="st6" d="M500,289.513v180.675c0,7.88-6.451,14.33-14.33,14.33H229.287c-7.003,0-10.736-4.562-12.026-6.497
			c-1.244-1.936-3.917-7.188-1.106-13.593l8.571-19.583c23.546-53.636,66.584-94.922,121.141-116.211l134.596-52.483
			c1.705-0.645,3.456-1.014,5.253-1.014C492.581,275.136,500,280.619,500,289.513z"/>
	</g>
</g>
</svg>
